<?xml version="1.0" standalone="no"?>
<!DOCTYPE svg PUBLIC "-//W3C//DTD SVG 20010904//EN"
 "http://www.w3.org/TR/2001/REC-SVG-20010904/DTD/svg10.dtd">
<svg version="1.0" xmlns="http://www.w3.org/2000/svg"
 width="1280.000000pt" height="720.000000pt" viewBox="0 0 1280.000000 720.000000"
 preserveAspectRatio="xMidYMid meet">
<metadata>
Created by potrace 1.16, written by Peter Selinger 2001-2019
</metadata>
<g transform="translate(0.000000,720.000000) scale(0.100000,-0.100000)"
fill="#000000" stroke="none">
<path d="M0 3600 l0 -3600 3200 0 3200 0 4 23 c3 12 7 116 10 232 6 233 23
395 61 560 29 128 59 322 80 520 9 77 20 184 26 237 9 88 8 105 -12 183 -26
104 -23 172 13 246 44 90 43 95 -4 103 -32 5 -80 39 -89 63 -14 39 -4 58 59
106 31 23 58 51 60 60 4 22 -52 22 -361 2 -170 -11 -239 -13 -269 -4 -42 11
-68 7 -68 -10 0 -6 24 -26 53 -44 33 -21 58 -46 64 -63 6 -16 30 -87 53 -158
53 -164 55 -222 12 -356 -16 -52 -42 -138 -56 -190 -14 -52 -58 -212 -98 -355
-39 -143 -81 -303 -94 -355 -42 -176 -76 -260 -105 -260 -27 0 -68 96 -84 196
-8 49 -28 154 -44 234 -43 208 -138 703 -151 785 -6 39 -16 82 -22 98 -7 18
-7 31 -1 40 6 6 16 30 23 52 31 96 102 260 127 294 24 32 56 62 86 82 5 4 0
24 -12 47 -17 33 -29 43 -68 56 -82 27 -214 54 -364 76 -79 12 -154 24 -166
27 -28 7 -29 -9 -4 -45 11 -15 29 -63 41 -107 11 -44 33 -109 48 -145 38 -93
34 -171 -17 -328 -22 -65 -53 -172 -71 -238 -17 -65 -46 -168 -65 -229 -45
-146 -79 -270 -121 -439 -31 -126 -77 -238 -98 -238 -27 1 -69 118 -90 252 -7
47 -39 211 -71 365 -32 154 -59 294 -60 310 -1 17 -3 32 -4 35 -1 3 -4 27 -6
53 -3 26 -14 68 -25 94 -11 25 -17 49 -15 54 3 4 -2 25 -11 46 -8 21 -18 72
-21 113 -5 69 -2 81 27 145 18 39 48 112 66 164 19 52 44 105 56 118 26 27
107 77 115 70 2 -3 -15 -17 -39 -31 -69 -40 -94 -74 -124 -166 -14 -47 -42
-116 -62 -155 -33 -66 -34 -74 -29 -145 3 -41 13 -92 21 -113 9 -21 14 -42 11
-46 -2 -5 4 -29 15 -54 11 -26 22 -68 25 -94 2 -26 5 -50 6 -53 1 -3 3 -18 4
-35 1 -16 28 -156 60 -310 32 -154 64 -317 71 -363 17 -107 39 -184 62 -212
l18 -22 27 41 c18 27 39 89 61 179 42 167 76 292 121 437 19 61 48 164 65 229
18 66 49 174 71 240 51 153 56 242 17 326 -13 30 -35 94 -47 141 -16 61 -32
95 -53 117 -16 18 -23 32 -16 32 9 0 9 3 -2 11 -17 12 1 10 214 -21 152 -23
234 -40 343 -72 66 -19 74 -24 93 -60 27 -51 25 -59 -14 -88 -45 -33 -89 -99
-121 -180 -15 -36 -32 -78 -39 -95 -8 -16 -19 -48 -26 -70 -7 -22 -17 -46 -23
-52 -6 -9 -6 -22 1 -40 6 -16 16 -59 22 -98 12 -75 99 -528 155 -810 19 -93
37 -190 40 -215 4 -25 11 -61 17 -80 11 -35 49 -100 58 -100 7 0 45 77 60 120
6 19 22 78 34 130 13 52 55 212 94 355 40 143 84 303 98 355 14 52 40 138 56
190 43 134 41 191 -12 356 -56 170 -56 171 -119 213 -30 20 -55 44 -57 54 -3
23 33 31 84 18 30 -9 98 -7 269 4 125 8 261 15 301 15 l73 0 -3 -27 c-2 -19
-20 -40 -63 -73 -33 -26 -61 -54 -63 -64 -5 -24 53 -74 94 -82 19 -3 34 -11
35 -18 3 -31 -5 -61 -32 -114 -35 -70 -37 -121 -8 -232 18 -72 19 -90 10 -178
-6 -53 -17 -160 -26 -237 -21 -198 -51 -392 -80 -520 -37 -161 -55 -325 -61
-545 -2 -107 -6 -212 -8 -233 l-4 -37 1498 0 1498 0 6 23 c3 12 9 121 12 242
6 210 5 227 -20 365 -14 80 -28 156 -30 170 -6 39 12 136 49 255 39 129 67
228 105 380 15 61 33 122 39 137 6 15 8 34 6 41 -3 6 10 58 29 115 45 133 51
177 33 227 -8 22 -36 100 -62 173 -36 100 -57 143 -86 176 -36 40 -39 49 -39
101 l0 58 83 -7 c157 -12 664 -19 693 -9 36 11 74 6 74 -11 0 -7 -21 -31 -46
-52 -37 -32 -58 -65 -114 -180 -97 -201 -97 -199 -60 -347 16 -67 39 -165 49
-217 11 -52 47 -221 81 -375 34 -154 72 -335 85 -402 15 -76 35 -143 52 -175
37 -70 38 -72 24 -63 -25 15 -62 118 -86 237 -13 68 -51 249 -85 403 -34 154
-70 323 -81 375 -10 52 -33 150 -49 217 -39 156 -41 147 81 399 37 75 60 110
95 139 39 33 43 40 27 46 -10 3 -31 2 -47 -4 -29 -10 -537 -3 -688 9 l-78 7 0
-47 c0 -40 6 -54 37 -90 28 -32 49 -77 86 -182 27 -76 56 -157 64 -179 18 -50
12 -94 -33 -227 -19 -57 -32 -109 -29 -115 2 -7 0 -26 -6 -41 -6 -15 -24 -76
-39 -137 -38 -152 -66 -251 -105 -380 -37 -119 -55 -216 -49 -255 2 -14 16
-90 30 -170 25 -138 26 -155 20 -365 -3 -121 -9 -230 -12 -242 l-6 -23 1691 0
1691 0 0 3600 0 3600 -6400 0 -6400 0 0 -3600z m7940 3000 c375 -21 583 -72
705 -172 102 -85 245 -398 285 -628 13 -72 6 -204 -15 -290 -10 -40 38 -77
146 -114 120 -41 134 -58 133 -164 -1 -59 -8 -96 -31 -157 -16 -44 -30 -94
-31 -112 0 -17 -8 -59 -17 -92 -16 -55 -16 -62 -1 -92 19 -38 20 -65 4 -73
-45 -22 -76 -47 -96 -77 -23 -33 -24 -38 -17 -172 5 -117 4 -140 -9 -153 -18
-17 -21 -34 -7 -34 5 0 12 8 14 18 4 15 5 15 6 0 1 -22 -8 -27 -41 -21 -28 5
-85 73 -118 142 l-17 33 -6 -52 c-4 -29 -11 -57 -16 -64 -8 -10 -71 -164 -71
-174 0 -2 5 0 11 3 14 9 -15 -59 -41 -96 -34 -47 -34 -34 -1 25 32 56 38 71
21 61 -10 -6 -3 22 10 40 4 6 11 21 15 35 4 14 21 56 37 94 16 37 27 77 25 88
-12 44 25 69 39 26 7 -24 92 -148 101 -148 3 0 13 10 24 22 13 16 18 38 18 73
l-1 50 -13 -50 -14 -50 6 45 c3 25 8 49 11 54 2 5 6 47 7 95 1 47 4 94 6 103
6 22 49 68 63 68 6 1 21 9 34 20 17 14 22 25 17 41 -7 21 -8 20 -21 -11 -8
-18 -17 -31 -20 -27 -3 3 2 19 10 36 16 31 13 81 -5 81 -13 0 -10 40 7 80 8
21 12 25 9 10 -3 -14 -8 -37 -11 -52 -4 -17 -2 -28 4 -28 11 0 35 87 35 128 0
14 13 61 29 105 37 103 47 191 24 234 -22 43 -48 59 -141 88 -119 36 -151 75
-120 148 4 10 3 17 -4 17 -6 0 -11 -8 -12 -17 0 -12 -2 -13 -6 -5 -3 7 2 21
10 30 22 24 32 152 17 232 -40 226 -182 533 -287 619 -30 25 -107 69 -133 76
-3 1 -17 7 -32 13 -104 43 -262 67 -553 83 -250 14 -562 7 -655 -15 -186 -42
-330 -120 -471 -253 -73 -69 -169 -183 -169 -201 0 -34 -23 -12 -56 55 -67
134 -110 167 -216 164 -107 -2 -311 -101 -470 -227 -102 -82 -138 -130 -247
-338 -159 -300 -129 -347 301 -490 91 -30 180 -61 197 -70 48 -26 42 -59 -22
-121 -58 -55 -126 -144 -146 -190 -8 -16 -31 -84 -52 -149 -21 -66 -49 -134
-61 -153 -13 -18 -57 -59 -98 -90 -185 -143 -190 -178 -19 -136 38 9 71 14 73
12 2 -2 -4 -51 -14 -109 -29 -166 -35 -264 -29 -420 7 -164 29 -249 115 -437
8 -17 14 -34 14 -38 0 -13 84 -175 91 -175 4 0 -2 23 -12 50 -26 68 -47 236
-32 251 15 15 33 3 33 -23 0 -11 8 -50 19 -86 32 -117 41 -161 41 -215 0 -58
14 -93 24 -61 3 11 3 39 1 63 -3 24 -2 41 1 38 9 -8 15 -89 8 -109 -7 -22 -30
-23 -38 -2 -3 9 -6 40 -6 70 0 55 -8 98 -41 216 -11 36 -19 76 -19 87 0 12 -4
21 -10 21 -22 0 2 -188 33 -262 13 -31 13 -39 2 -48 -17 -14 -58 60 -127 235
-92 230 -100 265 -107 425 -6 155 0 254 29 418 l18 104 -27 -6 c-233 -55 -242
-16 -31 147 96 74 120 109 160 237 59 186 96 252 201 350 27 25 49 53 49 62 0
26 -42 46 -213 103 -270 90 -302 104 -361 155 -62 55 -57 163 13 292 16 29 50
94 75 143 98 187 178 263 412 393 153 84 277 112 367 83 41 -14 103 -80 112
-120 7 -31 55 -112 55 -92 0 20 91 130 169 204 158 149 336 234 556 266 84 12
397 13 605 1z m-1387 -1715 c17 -159 23 -285 11 -285 -7 0 -4 -20 9 -57 19
-58 20 -148 1 -225 -5 -23 -3 -28 13 -28 11 0 28 9 38 20 10 11 23 20 28 20
24 0 203 -98 232 -127 45 -43 59 -109 52 -232 -8 -123 -9 -133 -25 -150 -7 -7
-11 -16 -8 -19 7 -6 36 17 36 28 0 5 18 39 40 78 22 38 40 80 41 93 l1 24 8
-25 8 -25 2 25 c2 21 4 20 10 -10 5 -19 15 -59 24 -89 19 -69 39 -235 31 -261
-4 -11 -2 -20 4 -20 6 0 11 9 11 20 0 11 4 20 9 20 12 0 25 101 24 180 -1 35
1 70 5 77 13 22 33 -3 37 -46 2 -24 7 -57 11 -74 12 -57 30 -226 23 -221 -4 2
-10 39 -14 81 -4 43 -13 107 -20 143 -7 35 -12 67 -9 71 6 10 -6 39 -17 39 -4
0 -7 -28 -5 -62 3 -67 -9 -162 -25 -190 -5 -10 -9 -25 -9 -33 0 -8 -8 -15 -17
-15 -16 0 -18 11 -20 83 -2 91 -27 231 -48 259 -12 18 -14 16 -35 -19 -13 -21
-35 -60 -50 -88 -18 -32 -35 -51 -49 -53 -25 -4 -26 5 -4 48 21 43 30 218 14
278 -16 59 -63 101 -172 155 -93 46 -94 46 -115 26 -11 -10 -34 -19 -51 -19
l-31 0 15 58 c19 71 13 172 -13 226 -14 29 -16 40 -6 43 15 6 16 63 0 221 -11
123 -24 157 -30 81 -3 -36 -8 -44 -43 -64 l-40 -22 1 -95 c0 -52 6 -108 12
-124 21 -53 82 -395 88 -498 4 -64 2 -123 -5 -161 -14 -67 -16 -75 -65 -230
-50 -158 -56 -185 -65 -289 -6 -73 -13 -99 -31 -124 -33 -45 -39 -31 -6 16 20
30 26 50 26 93 0 70 21 166 65 304 72 225 79 262 71 391 -6 102 -67 448 -87
493 -13 31 -24 180 -15 214 3 15 20 32 43 44 34 18 38 25 41 62 3 33 7 42 20
39 13 -3 19 -19 25 -73z m2105 -472 c15 -48 22 -105 25 -191 2 -67 2 -120 -1
-118 -3 3 -8 67 -12 143 -5 101 -12 149 -26 181 -10 23 -23 41 -29 39 -5 -2
-10 -31 -10 -65 0 -82 -9 -86 -13 -6 -3 72 1 84 27 84 14 0 24 -17 39 -67z
m-29 -34 c1 -19 -6 -44 -14 -55 -9 -12 -14 -42 -15 -81 0 -55 -2 -63 -19 -63
-13 0 -20 10 -25 33 -5 25 -9 29 -16 17 -8 -13 -10 -13 -10 2 0 9 5 18 11 20
6 2 7 11 3 23 -7 17 -9 16 -21 -10 l-14 -30 6 30 c8 38 11 41 29 26 7 -6 17
-32 21 -56 9 -62 25 -56 25 8 0 30 7 69 16 86 12 23 15 47 11 79 -4 31 -3 40
3 27 5 -11 9 -36 9 -56z m-5147 -176 c88 -79 177 -155 202 -173 12 -8 47 -35
78 -60 31 -25 92 -72 135 -105 289 -221 436 -347 644 -555 375 -375 548 -517
709 -583 232 -94 519 -129 760 -92 122 19 223 19 330 0 47 -8 107 -15 133 -15
42 0 47 2 39 17 -13 23 10 87 95 264 112 232 232 399 371 513 73 59 228 146
262 146 22 0 35 16 21 25 -6 3 -8 11 -6 18 2 7 6 66 9 132 3 66 8 134 12 151
3 19 2 34 -5 38 -17 11 -14 56 4 56 8 0 15 -4 15 -9 0 -14 150 -117 248 -171
63 -33 87 -52 87 -66 0 -32 -88 -81 -214 -120 -125 -38 -128 -40 -151 -52 -8
-5 -55 -28 -104 -52 -242 -118 -415 -334 -600 -748 -37 -82 -43 -103 -35 -132
6 -22 -66 -24 -177 -6 -114 20 -211 20 -334 1 -127 -20 -292 -20 -415 0 -114
18 -301 68 -359 96 -22 11 -44 19 -48 19 -15 0 -140 85 -214 145 -100 81 -254
226 -443 415 -208 208 -355 334 -644 555 -43 33 -104 80 -135 105 -31 25 -66
52 -78 60 -25 18 -114 94 -203 174 -62 55 -68 58 -107 53 -50 -5 -150 -52
-401 -190 -187 -103 -233 -126 -413 -210 -189 -88 -590 -229 -916 -322 -12 -3
-25 -16 -28 -28 -3 -12 -5 -518 -5 -1125 1 -607 -1 -1105 -3 -1108 -7 -7 -9
2204 -2 2236 5 23 25 31 277 110 149 46 299 95 332 107 217 84 260 103 470
203 44 21 166 85 270 142 287 158 372 196 436 197 31 1 47 -8 101 -56z m5061
-13 c-3 -12 -8 -19 -11 -16 -5 6 5 36 12 36 2 0 2 -9 -1 -20z m-34 -66 c-13
-32 -15 -41 -17 -95 -1 -25 -11 -46 -31 -66 l-29 -31 -6 31 c-7 36 12 56 31
30 16 -21 22 -7 27 62 4 49 28 125 34 107 1 -5 -3 -22 -9 -38z m158 -66 c-2
-18 -4 -6 -4 27 0 33 2 48 4 33 2 -15 2 -42 0 -60z m-2197 -58 c0 -47 -3 -60
-15 -60 -12 0 -15 13 -15 60 0 47 3 60 15 60 12 0 15 -13 15 -60z m1930 -145
c-29 -84 -26 -108 14 -142 52 -42 100 -65 306 -146 338 -132 413 -209 564
-579 35 -85 78 -184 95 -220 30 -61 36 -67 70 -73 21 -3 96 -1 167 5 137 13
161 16 322 49 128 26 193 26 302 0 134 -32 319 -36 465 -11 135 24 273 67 385
121 98 47 94 45 85 32 -21 -36 -309 -135 -470 -163 -146 -25 -331 -21 -465 11
-107 26 -180 26 -300 0 -156 -32 -298 -50 -418 -52 -104 -2 -114 0 -125 18
-16 28 -65 138 -131 295 -112 269 -200 386 -351 468 -44 24 -154 73 -245 109
-249 98 -300 131 -300 192 0 29 43 168 47 154 2 -5 -6 -35 -17 -68z m-5047 57
c9 -4 69 -56 133 -116 101 -95 228 -205 329 -284 l29 -23 -22 -42 c-12 -23
-22 -56 -22 -73 0 -25 -8 -37 -45 -63 -48 -34 -73 -80 -156 -276 -53 -127 -56
-156 -31 -252 17 -63 88 -412 141 -688 5 -27 18 -97 30 -155 11 -58 32 -168
46 -245 25 -131 44 -185 64 -185 17 0 60 110 105 266 43 153 70 251 172 619
82 300 91 329 113 385 11 30 21 69 21 87 0 17 -25 110 -55 205 -50 158 -58
176 -95 211 -41 39 -51 67 -25 67 27 0 155 -84 250 -162 98 -82 184 -174 334
-357 83 -100 92 -115 82 -135 -6 -11 -12 -41 -14 -66 l-4 -45 -1 50 c-1 28 2
56 7 64 17 27 -268 357 -414 478 -93 78 -232 169 -243 159 -3 -3 13 -23 36
-43 38 -35 45 -50 96 -216 31 -98 56 -193 56 -210 0 -18 -10 -57 -21 -87 -23
-58 -32 -89 -127 -435 -34 -121 -84 -303 -112 -405 -29 -102 -59 -210 -67
-240 -28 -103 -73 -200 -94 -200 -31 0 -45 38 -74 195 -15 83 -36 191 -45 240
-10 50 -23 117 -30 150 -53 281 -133 672 -145 711 -26 87 -19 121 64 314 66
153 82 179 128 212 32 24 43 38 43 58 0 14 8 44 19 65 l18 38 -120 98 c-65 54
-158 136 -206 181 -135 129 -159 148 -188 148 -36 0 -135 -56 -270 -152 l-112
-80 20 -27 c25 -34 34 -91 20 -131 -10 -29 -8 -34 22 -58 86 -72 86 -73 141
-232 30 -85 57 -174 61 -197 8 -52 -6 -124 -55 -278 -21 -66 -53 -172 -70
-235 -18 -63 -38 -133 -45 -155 -28 -88 -164 -573 -170 -609 -6 -37 -45 -126
-67 -153 -25 -32 -65 29 -91 137 -9 36 -39 187 -67 335 -28 149 -81 416 -117
595 l-65 325 17 45 c9 25 34 94 55 153 21 59 50 128 65 153 28 48 91 118 115
127 12 5 11 10 -8 26 l-24 20 -86 -43 c-105 -52 -161 -78 -233 -106 -30 -12
-67 -27 -84 -35 -63 -27 -185 -68 -334 -111 -84 -24 -158 -47 -162 -50 -5 -3
-9 -14 -9 -25 0 -11 -7 -34 -16 -50 -15 -31 -15 -31 25 -65 24 -21 53 -62 75
-107 37 -75 115 -284 123 -327 5 -25 -82 -331 -236 -840 -16 -52 -47 -156 -69
-230 -23 -74 -41 -129 -41 -122 -1 12 33 132 100 352 159 524 241 815 236 840
-6 35 -91 260 -119 318 -13 26 -44 69 -70 95 -52 52 -55 62 -34 93 8 11 16 33
18 49 3 28 7 30 168 76 242 70 410 134 623 241 114 56 135 61 160 40 25 -22
20 -44 -15 -67 -44 -28 -110 -128 -142 -216 -15 -41 -41 -109 -58 -152 l-31
-78 56 -277 c31 -152 84 -419 116 -592 33 -173 66 -340 72 -370 14 -60 54
-150 68 -150 14 0 61 90 73 140 14 57 156 561 173 615 7 22 27 92 45 155 17
63 49 169 70 235 48 150 64 227 56 274 -4 20 -30 105 -59 190 l-52 154 -62 51
c-53 44 -62 55 -57 76 17 76 16 95 -10 133 -14 21 -26 42 -26 46 0 14 227 171
299 208 65 32 98 39 134 25z m3043 -171 c-6 -100 -14 -176 -36 -316 l-9 -60 5
75 c3 41 9 100 14 130 11 68 23 246 16 239 -17 -16 -39 -176 -46 -319 l-7
-165 -1 135 c-1 83 4 166 14 215 8 44 17 101 20 126 4 31 11 46 21 46 12 0 14
-17 9 -106z m-180 -286 c3 -20 4 -84 0 -143 -4 -73 -3 -101 4 -87 8 17 9 17 7
2 -1 -10 -6 -17 -12 -15 -6 2 -9 48 -6 121 2 69 -1 117 -6 117 -6 0 -15 -68
-21 -151 -7 -83 -17 -158 -23 -167 -8 -14 -9 -12 -4 8 3 14 11 98 17 188 9
116 16 162 25 162 6 0 15 -16 19 -35z m109 -141 c3 -20 4 -38 1 -41 -2 -3 -8
12 -12 33 l-7 39 -14 -65 c-8 -36 -15 -78 -16 -95 -1 -16 -5 -29 -9 -27 -5 1
-12 2 -17 2 -5 0 -11 21 -13 48 -3 26 -8 56 -12 67 -8 20 -7 20 8 1 9 -11 16
-30 16 -43 0 -13 4 -23 9 -23 10 0 31 77 31 114 0 40 27 32 35 -10z m-247 -41
c0 -16 2 -44 6 -63 5 -28 3 -26 -9 10 -8 25 -12 53 -9 63 8 25 13 21 12 -10z
m30 -138 c1 -133 -5 -110 -10 40 -3 66 -1 107 3 90 3 -16 7 -75 7 -130z m35 3
c-3 -24 -9 -56 -14 -73 -8 -27 -8 -26 -4 10 3 22 5 55 5 73 0 17 4 32 9 32 4
0 6 -19 4 -42z m5059 -1066 c2 -658 0 -833 -9 -837 -7 -2 -13 0 -13 5 0 6 3
10 8 10 4 0 6 374 4 832 -1 458 0 830 2 827 3 -3 7 -379 8 -837z m-78 516 c10
-9 9 -15 -5 -29 -9 -9 -31 -54 -48 -100 -17 -46 -45 -113 -62 -149 -43 -92
-41 -130 19 -370 125 -504 153 -622 150 -626 -2 -2 -25 81 -51 184 -186 749
-179 702 -123 829 45 102 106 256 103 259 -8 8 -240 -21 -362 -45 -206 -42
-250 -79 -182 -150 51 -53 87 -121 136 -256 24 -66 47 -124 51 -130 22 -30 15
-73 -55 -329 -41 -149 -81 -293 -89 -319 -8 -27 -12 -56 -10 -65 5 -15 4 -15
-5 -1 -7 11 -6 30 5 65 8 27 48 172 89 322 74 269 75 273 59 310 -8 20 -33 84
-53 142 -43 117 -94 210 -140 254 -50 48 -37 96 32 126 73 31 314 73 510 89
10 0 24 -4 31 -11z m-9507 -1300 c-2 -18 -4 -4 -4 32 0 36 2 50 4 33 2 -18 2
-48 0 -65z m8953 -66 c-7 -26 -14 -58 -16 -72 -4 -40 -85 -352 -99 -385 -7
-16 -16 -41 -20 -55 -11 -36 -45 -97 -45 -81 0 8 9 33 19 55 10 23 26 57 34
76 14 35 97 347 101 385 6 46 31 146 34 135 2 -6 -1 -32 -8 -58z m-3567 -769
c9 -14 -30 -98 -47 -101 -19 -4 -20 5 -5 64 8 32 16 44 30 44 10 0 20 -3 22
-7z"/>
<path d="M7271 3953 c-1 -12 4 -25 10 -29 7 -4 8 -19 5 -38 -6 -28 -11 -98
-17 -246 -3 -65 -12 -65 146 -14 71 22 127 47 159 71 l49 36 -24 18 c-13 11
-48 30 -77 44 -62 29 -238 149 -245 167 -3 7 -6 3 -6 -9z"/>
<path d="M8430 3980 c0 -5 7 -10 16 -10 8 0 12 5 9 10 -3 6 -10 10 -16 10 -5
0 -9 -4 -9 -10z"/>
<path d="M6453 4000 c0 -30 2 -43 4 -27 2 15 2 39 0 55 -2 15 -4 2 -4 -28z"/>
<path d="M6250 3186 c0 -9 5 -16 10 -16 6 0 10 4 10 9 0 6 -4 13 -10 16 -5 3
-10 -1 -10 -9z"/>
<path d="M6968 438 c-2 -23 -5 -33 -13 -51 -4 -10 -5 -20 -2 -24 6 -5 37 61
37 78 0 14 -20 11 -22 -3z"/>
</g>
</svg>
